<svg id="图层_1" data-name="图层 1" xmlns="http://www.w3.org/2000/svg" viewBox="0 0 896.03 896.03"><path d="M511.49 64.19c-247.43 0-448 200.59-448 448s200.58 448 448 448 448-200.58 448-448-200.59-448-448-448z" transform="translate(-63.48 -64.19)" fill="#0b75ff"/><path d="M467 310.05a32.32 32.32 0 019.57-23.42 31.64 31.64 0 0123.66-9.81h22.6a31.59 31.59 0 0123.64 9.81 32.46 32.46 0 019.53 23.42v231.62a32.66 32.66 0 01-33.19 33.23h-22.6A32.69 32.69 0 01467 541.67zm0 346.42a32.93 32.93 0 019.57-23.93 31.66 31.66 0 0123.66-9.84h22.6a31.62 31.62 0 0123.64 9.84 33.07 33.07 0 019.53 23.93v57.9a32.69 32.69 0 01-33.19 33.23h-22.6a32.09 32.09 0 01-23.66-9.6c-6.39-6.35-9.57-14.26-9.57-23.64z" transform="translate(-63.48 -64.19)" fill="#fff"/></svg>